<svg xmlns="http://www.w3.org/2000/svg" xml:space="preserve" stroke-miterlimit="10" style="fill-rule:nonzero;clip-rule:evenodd;stroke-linecap:round;stroke-linejoin:round" viewBox="0 0 118 118"><g fill-rule="evenodd"><path fill="#fbbc05" d="M85.1 16.4c9.1 0 16.5 7.4 16.5 16.5V46H118V32.9C118 14.7 103.3 0 85.1 0H72v16.4h13.1"/><path fill="#ea4335" d="M16.4 32.9c0-9.1 7.4-16.5 16.5-16.5H46V0H32.9C14.7 0 0 14.7 0 32.9V46h16.4V32.9"/><path fill="#4285f4" d="M32.9 101.6c-9.1 0-16.5-7.4-16.5-16.5V72H0v13.1C0 103.3 14.7 118 32.9 118H46v-16.4H32.9M59 36c12.7 0 23 10.3 23 23S71.7 82 59 82 36 71.7 36 59s10.3-23 23-23"/><path fill="#34a853" d="M98 85c7.2 0 13 5.8 13 13s-5.8 13-13 13-13-5.8-13-13 5.8-13 13-13"/></g></svg>